<svg version="1.1" id="Layer_1" xmlns="http://www.w3.org/2000/svg" xmlns:xlink="http://www.w3.org/1999/xlink" x="0px" y="0px"
	 width="100%" viewBox="0 0 1024 1024" enable-background="new 0 0 1024 1024" xml:space="preserve">
<path fill="#010101" opacity="1.000000" stroke="none" 
	d="
M680.000000,1025.000000 
	C453.333344,1025.000000 227.166672,1025.000000 1.000000,1025.000000 
	C1.000000,683.666687 1.000000,342.333344 1.000000,1.000000 
	C342.333344,1.000000 683.666687,1.000000 1025.000000,1.000000 
	C1025.000000,342.333344 1025.000000,683.666687 1025.000000,1025.000000 
	C910.166687,1025.000000 795.333313,1025.000000 680.000000,1025.000000 
M448.471436,601.002136 
	C449.912262,601.332703 451.341156,601.731995 452.795654,601.983521 
	C476.935272,606.158630 501.268158,607.431396 525.734741,607.095154 
	C529.901978,607.037903 531.111755,605.808655 531.087097,601.657104 
	C530.922424,573.827148 530.972839,545.995667 531.033142,518.164856 
	C531.043945,513.172791 531.579346,508.181763 531.586792,503.189819 
	C531.593262,498.885132 533.936829,496.971649 537.738159,496.110107 
	C542.215088,495.095490 546.712708,494.149506 551.143677,492.959076 
	C582.583618,484.512756 604.173950,465.285492 614.427307,434.164673 
	C620.181274,416.700623 620.422180,398.666351 617.964050,380.602417 
	C615.172424,360.087311 606.357117,342.909058 588.867676,331.034393 
	C574.306763,321.148132 557.833252,316.884644 540.480103,315.899292 
	C514.394775,314.418152 488.256195,313.366028 462.384369,318.086853 
	C443.186249,321.589874 428.296448,331.675385 421.378754,350.485016 
	C417.787323,360.250183 415.337067,370.714020 414.249329,381.059692 
	C412.320618,399.404175 411.936920,417.882782 414.969299,436.259857 
	C418.104828,455.261932 424.016022,472.984711 437.559265,487.350220 
	C441.366974,491.389191 443.137421,495.967072 443.081787,501.670380 
	C442.870483,523.333130 443.001984,544.999146 442.996002,566.663940 
	C442.994171,573.259583 442.117889,573.922852 435.752472,572.318542 
	C401.499512,563.685913 369.286163,550.160095 338.775757,532.383362 
	C297.543854,508.359863 262.106415,477.324493 229.507187,442.804382 
	C226.476791,439.595490 223.610062,436.231995 220.764862,433.049347 
	C242.783264,408.075226 266.897675,386.104462 292.644562,366.017975 
	C350.114227,321.182983 413.752197,291.004028 487.601593,285.793488 
	C515.052917,283.856598 542.429810,284.516754 569.554565,289.221313 
	C605.030212,295.374268 638.411682,307.670746 670.154419,324.630524 
	C721.066589,351.832245 764.456604,388.406494 803.334106,430.701721 
	C805.457458,433.011688 805.196106,434.194122 803.211060,436.363617 
	C783.630188,457.763733 762.921448,477.939362 740.352356,496.220947 
	C705.867920,524.154297 668.253723,546.599487 626.558655,561.987366 
	C602.755981,570.771790 578.282227,576.915649 553.079407,580.086304 
	C551.057861,580.340576 548.861267,580.658997 548.941040,583.843201 
	C549.123230,591.116821 548.998535,598.398071 548.998535,605.680786 
	C550.395081,605.428772 551.372803,605.239258 552.355042,605.077026 
	C567.298340,602.608398 582.392212,600.818726 597.155823,597.541260 
	C630.892151,590.052063 662.138611,576.104919 692.151367,559.210754 
	C739.720642,532.434082 780.889404,497.683197 818.218750,458.148132 
	C822.444214,453.673096 826.173523,448.719940 830.499084,444.351074 
	C839.260376,435.502075 836.948853,429.030853 829.918701,421.676331 
	C799.891907,390.264038 769.337830,359.418762 733.696106,334.168091 
	C675.807861,293.156616 612.818848,265.591309 541.236084,259.792847 
	C517.054565,257.834015 493.008209,258.048676 469.061981,261.204803 
	C441.956573,264.777405 415.718109,272.054749 390.091736,281.665375 
	C331.587860,303.606110 281.301941,338.214752 236.493332,381.182281 
	C222.793884,394.318787 209.834030,408.231689 196.659210,421.908234 
	C189.002502,429.856567 188.797928,435.021790 195.953308,443.417908 
	C201.992157,450.503845 208.276917,457.396423 214.719559,464.118927 
	C234.322433,484.573273 255.152115,503.687988 277.572449,521.042847 
	C308.675751,545.118896 341.888733,565.579285 378.406708,580.497803 
	C400.804138,589.647705 423.986908,596.033142 448.471436,601.002136 
M225.633301,706.911865 
	C233.634064,690.649841 225.384583,673.662598 211.044189,670.778442 
	C198.753784,668.306641 185.815277,669.057373 173.296356,668.390076 
	C173.296356,696.385559 173.296356,723.096558 173.296356,749.685303 
	C178.499252,749.685303 183.399582,749.685303 188.467957,749.685303 
	C188.467957,739.619507 188.467957,729.871094 188.467957,720.001099 
	C190.585953,720.001099 192.449036,720.235718 194.230835,719.954712 
	C198.645752,719.258606 200.995163,720.943542 202.770966,725.149353 
	C205.932343,732.636902 209.766190,739.847534 213.507095,747.076538 
	C214.140945,748.301392 215.663162,749.780457 216.868073,749.868530 
	C221.383072,750.198730 225.936722,750.000732 230.932388,750.000732 
	C225.188416,738.691772 219.766785,728.017395 216.077713,720.754211 
	C219.538391,715.649963 222.319916,711.547363 225.633301,706.911865 
M242.996933,689.683716 
	C242.746521,698.649414 242.295090,707.615845 242.325333,716.580627 
	C242.341980,721.515503 242.513718,726.618713 243.748962,731.350098 
	C247.986053,747.579712 263.723846,753.070312 277.733459,750.607239 
	C293.625153,747.813171 300.656891,736.149170 300.241150,723.205200 
	C299.910004,712.895874 300.221710,702.566956 299.963806,692.253906 
	C299.776520,684.765198 296.447418,678.673401 290.659973,673.891968 
	C278.202789,663.600403 249.061295,664.985291 242.996933,689.683716 
M851.197998,719.471313 
	C851.143066,710.319397 851.237976,701.163452 850.990356,692.016724 
	C850.750000,683.139587 846.725952,676.347839 839.033875,671.717163 
	C832.755615,667.937500 825.882996,667.682861 818.902100,668.011353 
	C807.084106,668.567383 796.656982,676.852539 795.184509,688.631653 
	C793.833252,699.441467 794.380737,710.483276 793.985046,721.419006 
	C793.064148,746.868591 816.015198,754.908630 833.078674,749.430420 
	C845.609680,745.407349 851.148010,736.361389 851.197998,719.471313 
M378.167450,738.479370 
	C378.167450,742.249268 378.167450,746.019165 378.167450,749.686279 
	C394.745026,749.686279 410.800110,749.686279 426.687225,749.686279 
	C426.687225,745.291992 426.687225,741.220276 426.687225,736.875122 
	C415.418701,736.875122 404.464417,736.875122 393.603668,736.875122 
	C393.603668,729.823059 393.603668,723.057922 393.603668,715.793213 
	C403.495880,715.793213 413.225861,715.793213 422.645020,715.793213 
	C422.645020,711.211731 422.645020,707.139282 422.645020,702.852173 
	C412.650879,702.852173 403.014191,702.852173 393.449219,702.852173 
	C393.449219,695.851074 393.449219,689.080688 393.449219,681.871216 
	C404.646484,681.871216 415.724396,681.871216 426.718689,681.871216 
	C426.718689,677.352356 426.718689,673.280212 426.718689,669.301270 
	C410.375702,669.301270 394.320343,669.301270 378.166046,669.301270 
	C378.166046,692.234192 378.166046,714.860413 378.167450,738.479370 
M124.495148,668.998169 
	C118.405777,668.998169 112.316406,668.998169 106.228271,668.998169 
	C106.228271,696.258057 106.228271,722.961060 106.228271,749.708923 
	C111.357193,749.708923 116.252716,749.708923 121.363953,749.708923 
	C121.363953,739.677795 121.363953,729.939514 121.363953,720.000549 
	C126.786858,720.000549 131.927032,720.070679 137.064651,719.985657 
	C147.183777,719.818237 157.155746,712.434265 159.859573,703.204102 
	C163.134720,692.023621 159.559189,680.444153 151.109207,674.296936 
	C143.336716,668.642700 134.438843,668.785339 124.495148,668.998169 
M674.866028,685.976807 
	C671.124023,675.759277 663.404724,670.099060 652.994324,669.237183 
	C642.783936,668.391846 632.448792,669.053101 622.080994,669.053101 
	C622.080994,696.162109 622.080994,722.881897 622.080994,749.668945 
	C627.134216,749.668945 632.003418,749.668945 636.977234,749.668945 
	C636.977234,744.515686 636.977234,739.695923 636.977234,734.876160 
	C636.977234,729.967163 636.977234,725.058167 636.977234,720.001038 
	C641.880859,720.001038 646.197693,720.005981 650.514526,720.000183 
	C668.722534,719.975647 680.284668,704.292542 674.866028,685.976807 
M490.945648,674.477722 
	C489.989532,673.826538 489.074615,673.102478 488.071045,672.535278 
	C477.374756,666.489441 466.324402,666.043152 455.474670,671.601868 
	C444.802490,677.069580 441.707001,686.821655 441.957642,698.174866 
	C442.152313,706.993225 441.746460,715.829590 442.112091,724.637024 
	C442.271698,728.481628 443.039276,732.579590 444.656830,736.035339 
	C450.693970,748.933044 463.792999,752.842712 476.880463,750.685730 
	C491.821381,748.223206 499.781494,737.987061 498.715271,724.260803 
	C493.661530,724.260803 488.595306,724.260803 483.415863,724.260803 
	C483.335724,725.317688 483.290771,726.124573 483.211121,726.928101 
	C482.477234,734.332642 477.908051,738.204285 470.158478,737.995361 
	C462.754852,737.795837 458.142029,733.709412 458.008881,726.520264 
	C457.799408,715.208557 457.825867,703.886597 458.054260,692.575073 
	C458.183380,686.179260 462.420746,681.638855 468.084930,681.007324 
	C476.249664,680.097046 481.209778,682.949890 483.169739,689.702209 
	C483.571106,691.084961 483.913452,692.484802 484.256561,693.777100 
	C489.230499,693.777100 494.008728,693.777100 498.767334,693.777100 
	C499.262878,685.936035 497.260040,680.848633 490.945648,674.477722 
M776.282104,695.882080 
	C778.843384,687.024780 781.404602,678.167480 784.056702,668.996033 
	C779.489563,668.996033 775.478455,668.772217 771.519226,669.127136 
	C770.268494,669.239319 768.421204,670.697021 768.094238,671.882812 
	C764.568420,684.670654 761.328247,697.536865 757.933472,710.361450 
	C755.976990,717.752319 753.880798,725.106262 751.492188,733.764954 
	C745.665344,711.294922 740.208191,690.250793 734.745361,669.184814 
	C729.486511,669.184814 724.398499,669.184814 719.149475,669.184814 
	C726.490540,695.215027 733.727722,721.039917 741.171997,746.804993 
	C741.555786,748.133301 743.654175,749.759338 745.053345,749.859131 
	C750.182373,750.225037 755.353210,750.004089 760.942261,750.004089 
	C765.985474,732.177002 771.008240,714.421997 776.282104,695.882080 
M540.291504,750.001404 
	C541.684387,749.894470 543.077271,749.787537 544.504150,749.677917 
	C544.504150,726.903748 544.504150,704.635864 544.504150,681.905945 
	C551.315857,681.905945 558.054382,681.905945 564.723999,681.905945 
	C564.723999,677.368408 564.723999,673.299622 564.723999,669.377563 
	C545.762817,669.377563 527.081055,669.377563 508.449524,669.377563 
	C508.449524,673.697083 508.449524,677.635254 508.449524,682.056152 
	C515.320068,682.056152 522.039062,682.056152 529.103882,682.056152 
	C529.103882,704.921997 529.103882,727.302551 529.103882,750.001099 
	C532.755127,750.001099 536.047424,750.001099 540.291504,750.001404 
M903.495300,668.997375 
	C889.745056,668.997375 875.994751,668.997375 862.264954,668.997375 
	C862.264954,673.608826 862.264954,677.678101 862.264954,682.130005 
	C869.261841,682.130005 876.001587,682.130005 883.093506,682.130005 
	C883.093506,704.905457 883.093506,727.289978 883.093506,749.770142 
	C888.198914,749.770142 892.932312,749.770142 898.033691,749.770142 
	C898.033691,727.158752 898.033691,704.774902 898.033691,681.848877 
	C905.089294,681.848877 911.785522,681.848877 918.288330,681.848877 
	C918.288330,677.244873 918.288330,673.194092 918.288330,668.997437 
	C913.471863,668.997437 908.982361,668.997437 903.495300,668.997375 
M360.000763,727.167358 
	C360.000763,707.904785 360.000763,688.642273 360.000763,669.198486 
	C354.860229,669.198486 350.126282,669.198486 344.998810,669.198486 
	C344.998810,671.181702 344.998840,672.969543 344.998810,674.757385 
	C344.998627,692.236023 345.036377,709.714783 344.976990,727.193237 
	C344.957123,733.036987 341.577545,736.924805 336.015045,737.887512 
	C331.758240,738.624268 326.812408,735.852844 325.150482,731.688538 
	C324.559479,730.207520 324.227264,728.623291 323.822754,727.242554 
	C319.003723,727.242554 314.405579,727.242554 309.828156,727.242554 
	C308.905212,742.181091 326.452576,753.570251 339.693298,750.420044 
	C351.960571,747.501343 358.227905,740.072327 360.000763,727.167358 
M690.000793,722.500000 
	C690.000793,731.597412 690.000793,740.694824 690.000793,749.710815 
	C695.314575,749.710815 700.052979,749.710815 704.713745,749.710815 
	C704.713745,722.685791 704.713745,695.951843 704.713745,669.289551 
	C699.684265,669.289551 694.945984,669.289551 690.000977,669.289551 
	C690.000977,686.885925 690.000977,704.192993 690.000793,722.500000 
M599.485229,740.000427 
	C587.062500,740.000427 574.639771,740.000427 562.279785,740.000427 
	C562.279785,743.966736 562.279785,747.371399 562.279785,750.722046 
	C578.136047,750.722046 593.711731,750.722046 609.152771,750.722046 
	C609.152771,747.039307 609.152771,743.635010 609.152771,740.000793 
	C606.114319,740.000793 603.298889,740.000793 599.485229,740.000427 
z"/>
<path fill="#FEFEFE" opacity="1.000000" stroke="none" 
	d="
M448.039795,600.997681 
	C423.986908,596.033142 400.804138,589.647705 378.406708,580.497803 
	C341.888733,565.579285 308.675751,545.118896 277.572449,521.042847 
	C255.152115,503.687988 234.322433,484.573273 214.719559,464.118927 
	C208.276917,457.396423 201.992157,450.503845 195.953308,443.417908 
	C188.797928,435.021790 189.002502,429.856567 196.659210,421.908234 
	C209.834030,408.231689 222.793884,394.318787 236.493332,381.182281 
	C281.301941,338.214752 331.587860,303.606110 390.091736,281.665375 
	C415.718109,272.054749 441.956573,264.777405 469.061981,261.204803 
	C493.008209,258.048676 517.054565,257.834015 541.236084,259.792847 
	C612.818848,265.591309 675.807861,293.156616 733.696106,334.168091 
	C769.337830,359.418762 799.891907,390.264038 829.918701,421.676331 
	C836.948853,429.030853 839.260376,435.502075 830.499084,444.351074 
	C826.173523,448.719940 822.444214,453.673096 818.218750,458.148132 
	C780.889404,497.683197 739.720642,532.434082 692.151367,559.210754 
	C662.138611,576.104919 630.892151,590.052063 597.155823,597.541260 
	C582.392212,600.818726 567.298340,602.608398 552.355042,605.077026 
	C551.372803,605.239258 550.395081,605.428772 548.998535,605.680786 
	C548.998535,598.398071 549.123230,591.116821 548.941040,583.843201 
	C548.861267,580.658997 551.057861,580.340576 553.079407,580.086304 
	C578.282227,576.915649 602.755981,570.771790 626.558655,561.987366 
	C668.253723,546.599487 705.867920,524.154297 740.352356,496.220947 
	C762.921448,477.939362 783.630188,457.763733 803.211060,436.363617 
	C805.196106,434.194122 805.457458,433.011688 803.334106,430.701721 
	C764.456604,388.406494 721.066589,351.832245 670.154419,324.630524 
	C638.411682,307.670746 605.030212,295.374268 569.554565,289.221313 
	C542.429810,284.516754 515.052917,283.856598 487.601593,285.793488 
	C413.752197,291.004028 350.114227,321.182983 292.644562,366.017975 
	C266.897675,386.104462 242.783264,408.075226 220.764862,433.049347 
	C223.610062,436.231995 226.476791,439.595490 229.507187,442.804382 
	C262.106415,477.324493 297.543854,508.359863 338.775757,532.383362 
	C369.286163,550.160095 401.499512,563.685913 435.752472,572.318542 
	C442.117889,573.922852 442.994171,573.259583 442.996002,566.663940 
	C443.001984,544.999146 442.870483,523.333130 443.081787,501.670380 
	C443.137421,495.967072 441.366974,491.389191 437.559265,487.350220 
	C424.016022,472.984711 418.104828,455.261932 414.969299,436.259857 
	C411.936920,417.882782 412.320618,399.404175 414.249329,381.059692 
	C415.337067,370.714020 417.787323,360.250183 421.378754,350.485016 
	C428.296448,331.675385 443.186249,321.589874 462.384369,318.086853 
	C488.256195,313.366028 514.394775,314.418152 540.480103,315.899292 
	C557.833252,316.884644 574.306763,321.148132 588.867676,331.034393 
	C606.357117,342.909058 615.172424,360.087311 617.964050,380.602417 
	C620.422180,398.666351 620.181274,416.700623 614.427307,434.164673 
	C604.173950,465.285492 582.583618,484.512756 551.143677,492.959076 
	C546.712708,494.149506 542.215088,495.095490 537.738159,496.110107 
	C533.936829,496.971649 531.593262,498.885132 531.586792,503.189819 
	C531.579346,508.181763 531.043945,513.172791 531.033142,518.164856 
	C530.972839,545.995667 530.922424,573.827148 531.087097,601.657104 
	C531.111755,605.808655 529.901978,607.037903 525.734741,607.095154 
	C501.268158,607.431396 476.935272,606.158630 452.795654,601.983521 
	C451.341156,601.731995 449.912262,601.332703 448.039795,600.997681 
M502.352753,444.998199 
	C498.524139,444.999603 494.590546,444.464417 490.902924,445.186188 
	C488.333771,445.689026 485.020691,447.414429 484.042908,449.522675 
	C483.174011,451.396240 484.356293,455.147156 485.913635,456.983429 
	C487.821503,459.232910 490.966705,461.511963 493.744446,461.740265 
	C501.751892,462.398499 509.905701,462.696350 517.890991,461.949188 
	C546.610901,459.262024 564.687500,433.727539 563.007324,407.259369 
	C562.552185,400.088684 556.866150,394.484161 549.468994,394.007812 
	C540.977051,393.460999 533.250183,398.418304 532.067322,405.452667 
	C531.436157,409.205658 531.075439,413.046051 531.044128,416.850708 
	C530.904419,433.817200 520.314453,444.639862 502.352753,444.998199 
z"/>
<path fill="#FEFEFE" opacity="1.000000" stroke="none" 
	d="
M225.367371,707.178345 
	C222.319916,711.547363 219.538391,715.649963 216.077713,720.754211 
	C219.766785,728.017395 225.188416,738.691772 230.932388,750.000732 
	C225.936722,750.000732 221.383072,750.198730 216.868073,749.868530 
	C215.663162,749.780457 214.140945,748.301392 213.507095,747.076538 
	C209.766190,739.847534 205.932343,732.636902 202.770966,725.149353 
	C200.995163,720.943542 198.645752,719.258606 194.230835,719.954712 
	C192.449036,720.235718 190.585953,720.001099 188.467957,720.001099 
	C188.467957,729.871094 188.467957,739.619507 188.467957,749.685303 
	C183.399582,749.685303 178.499252,749.685303 173.296356,749.685303 
	C173.296356,723.096558 173.296356,696.385559 173.296356,668.390076 
	C185.815277,669.057373 198.753784,668.306641 211.044189,670.778442 
	C225.384583,673.662598 233.634064,690.649841 225.367371,707.178345 
M188.214233,685.710327 
	C188.214233,692.773682 188.214233,699.837097 188.214233,707.009094 
	C192.837860,707.009094 196.822067,707.029480 200.806015,707.004822 
	C209.121399,706.953369 213.652695,702.672180 213.751190,694.806519 
	C213.853821,686.611328 209.253464,682.016968 200.913315,681.994751 
	C197.591324,681.985901 194.247910,681.783325 190.960205,682.119080 
	C189.965073,682.220764 189.124146,683.832520 188.214233,685.710327 
z"/>
<path fill="#FCFCFC" opacity="1.000000" stroke="none" 
	d="
M243.019989,689.263489 
	C249.061295,664.985291 278.202789,663.600403 290.659973,673.891968 
	C296.447418,678.673401 299.776520,684.765198 299.963806,692.253906 
	C300.221710,702.566956 299.910004,712.895874 300.241150,723.205200 
	C300.656891,736.149170 293.625153,747.813171 277.733459,750.607239 
	C263.723846,753.070312 247.986053,747.579712 243.748962,731.350098 
	C242.513718,726.618713 242.341980,721.515503 242.325333,716.580627 
	C242.295090,707.615845 242.746521,698.649414 243.019989,689.263489 
M285.062439,693.888855 
	C284.246002,685.723999 278.865326,680.771240 271.085876,681.023804 
	C263.766846,681.261536 258.194275,686.498291 258.054230,693.820435 
	C257.854156,704.284180 257.862213,714.757324 258.054932,725.221375 
	C258.186310,732.354919 264.529266,737.892578 271.941864,737.812683 
	C279.061829,737.735962 284.747437,732.758240 284.961823,725.689575 
	C285.273743,715.402954 285.102600,705.101807 285.062439,693.888855 
z"/>
<path fill="#FDFDFD" opacity="1.000000" stroke="none" 
	d="
M851.198669,719.964844 
	C851.148010,736.361389 845.609680,745.407349 833.078674,749.430420 
	C816.015198,754.908630 793.064148,746.868591 793.985046,721.419006 
	C794.380737,710.483276 793.833252,699.441467 795.184509,688.631653 
	C796.656982,676.852539 807.084106,668.567383 818.902100,668.011353 
	C825.882996,667.682861 832.755615,667.937500 839.033875,671.717163 
	C846.725952,676.347839 850.750000,683.139587 850.990356,692.016724 
	C851.237976,701.163452 851.143066,710.319397 851.198669,719.964844 
M811.322021,731.906677 
	C815.716736,736.879639 822.232178,738.947571 827.727478,736.541077 
	C833.366272,734.071655 836.184692,729.582886 836.082031,723.215515 
	C835.923767,713.399963 836.112549,703.578979 835.975220,693.762817 
	C835.895325,688.054810 832.685242,683.639038 827.876343,681.991699 
	C818.135864,678.655090 809.270508,684.762878 809.041870,695.187500 
	C808.852173,703.837891 808.825806,712.501221 809.091614,721.147583 
	C809.195374,724.521545 810.295837,727.864807 811.322021,731.906677 
z"/>
<path fill="#FDFDFD" opacity="1.000000" stroke="none" 
	d="
M378.166748,737.982971 
	C378.166046,714.860413 378.166046,692.234192 378.166046,669.301270 
	C394.320343,669.301270 410.375702,669.301270 426.718689,669.301270 
	C426.718689,673.280212 426.718689,677.352356 426.718689,681.871216 
	C415.724396,681.871216 404.646484,681.871216 393.449219,681.871216 
	C393.449219,689.080688 393.449219,695.851074 393.449219,702.852173 
	C403.014191,702.852173 412.650879,702.852173 422.645020,702.852173 
	C422.645020,707.139282 422.645020,711.211731 422.645020,715.793213 
	C413.225861,715.793213 403.495880,715.793213 393.603668,715.793213 
	C393.603668,723.057922 393.603668,729.823059 393.603668,736.875122 
	C404.464417,736.875122 415.418701,736.875122 426.687225,736.875122 
	C426.687225,741.220276 426.687225,745.291992 426.687225,749.686279 
	C410.800110,749.686279 394.745026,749.686279 378.167450,749.686279 
	C378.167450,746.019165 378.167450,742.249268 378.166748,737.982971 
z"/>
<path fill="#FEFEFE" opacity="1.000000" stroke="none" 
	d="
M124.993523,668.998169 
	C134.438843,668.785339 143.336716,668.642700 151.109207,674.296936 
	C159.559189,680.444153 163.134720,692.023621 159.859573,703.204102 
	C157.155746,712.434265 147.183777,719.818237 137.064651,719.985657 
	C131.927032,720.070679 126.786858,720.000549 121.363953,720.000549 
	C121.363953,729.939514 121.363953,739.677795 121.363953,749.708923 
	C116.252716,749.708923 111.357193,749.708923 106.228271,749.708923 
	C106.228271,722.961060 106.228271,696.258057 106.228271,668.998169 
	C112.316406,668.998169 118.405777,668.998169 124.993523,668.998169 
M133.228745,681.996094 
	C129.288651,681.996094 125.348541,681.996094 121.301773,681.996094 
	C121.301773,690.795105 121.301773,699.170959 121.301773,707.958191 
	C125.951317,707.958191 130.417206,708.261353 134.826202,707.889771 
	C142.095688,707.277039 146.173721,702.023132 145.953461,694.183777 
	C145.734039,686.374390 141.837662,682.352722 133.228745,681.996094 
z"/>
<path fill="#FEFEFE" opacity="1.000000" stroke="none" 
	d="
M674.932312,686.384705 
	C680.284668,704.292542 668.722534,719.975647 650.514526,720.000183 
	C646.197693,720.005981 641.880859,720.001038 636.977234,720.001038 
	C636.977234,725.058167 636.977234,729.967163 636.977234,734.876160 
	C636.977234,739.695923 636.977234,744.515686 636.977234,749.668945 
	C632.003418,749.668945 627.134216,749.668945 622.080994,749.668945 
	C622.080994,722.881897 622.080994,696.162109 622.080994,669.053101 
	C632.448792,669.053101 642.783936,668.391846 652.994324,669.237183 
	C663.404724,670.099060 671.124023,675.759277 674.932312,686.384705 
M654.065063,706.992493 
	C660.887451,704.344055 661.578491,697.580933 660.896484,691.655273 
	C660.338013,686.802307 657.449402,682.999634 652.719666,682.256348 
	C647.607483,681.452942 642.271423,682.074402 637.247925,682.074402 
	C637.247925,691.037659 637.247925,699.417725 637.247925,708.419495 
	C642.802490,707.958313 648.024597,707.524719 654.065063,706.992493 
z"/>
<path fill="#FCFCFC" opacity="1.000000" stroke="none" 
	d="
M491.209106,674.730408 
	C497.260040,680.848633 499.262878,685.936035 498.767334,693.777100 
	C494.008728,693.777100 489.230499,693.777100 484.256561,693.777100 
	C483.913452,692.484802 483.571106,691.084961 483.169739,689.702209 
	C481.209778,682.949890 476.249664,680.097046 468.084930,681.007324 
	C462.420746,681.638855 458.183380,686.179260 458.054260,692.575073 
	C457.825867,703.886597 457.799408,715.208557 458.008881,726.520264 
	C458.142029,733.709412 462.754852,737.795837 470.158478,737.995361 
	C477.908051,738.204285 482.477234,734.332642 483.211121,726.928101 
	C483.290771,726.124573 483.335724,725.317688 483.415863,724.260803 
	C488.595306,724.260803 493.661530,724.260803 498.715271,724.260803 
	C499.781494,737.987061 491.821381,748.223206 476.880463,750.685730 
	C463.792999,752.842712 450.693970,748.933044 444.656830,736.035339 
	C443.039276,732.579590 442.271698,728.481628 442.112091,724.637024 
	C441.746460,715.829590 442.152313,706.993225 441.957642,698.174866 
	C441.707001,686.821655 444.802490,677.069580 455.474670,671.601868 
	C466.324402,666.043152 477.374756,666.489441 488.071045,672.535278 
	C489.074615,673.102478 489.989532,673.826538 491.209106,674.730408 
z"/>
<path fill="#FDFDFD" opacity="1.000000" stroke="none" 
	d="
M776.156555,696.274536 
	C771.008240,714.421997 765.985474,732.177002 760.942261,750.004089 
	C755.353210,750.004089 750.182373,750.225037 745.053345,749.859131 
	C743.654175,749.759338 741.555786,748.133301 741.171997,746.804993 
	C733.727722,721.039917 726.490540,695.215027 719.149475,669.184814 
	C724.398499,669.184814 729.486511,669.184814 734.745361,669.184814 
	C740.208191,690.250793 745.665344,711.294922 751.492188,733.764954 
	C753.880798,725.106262 755.976990,717.752319 757.933472,710.361450 
	C761.328247,697.536865 764.568420,684.670654 768.094238,671.882812 
	C768.421204,670.697021 770.268494,669.239319 771.519226,669.127136 
	C775.478455,668.772217 779.489563,668.996033 784.056702,668.996033 
	C781.404602,678.167480 778.843384,687.024780 776.156555,696.274536 
z"/>
<path fill="#FEFEFE" opacity="1.000000" stroke="none" 
	d="
M539.815613,750.001221 
	C536.047424,750.001099 532.755127,750.001099 529.103882,750.001099 
	C529.103882,727.302551 529.103882,704.921997 529.103882,682.056152 
	C522.039062,682.056152 515.320068,682.056152 508.449524,682.056152 
	C508.449524,677.635254 508.449524,673.697083 508.449524,669.377563 
	C527.081055,669.377563 545.762817,669.377563 564.723999,669.377563 
	C564.723999,673.299622 564.723999,677.368408 564.723999,681.905945 
	C558.054382,681.905945 551.315857,681.905945 544.504150,681.905945 
	C544.504150,704.635864 544.504150,726.903748 544.504150,749.677917 
	C543.077271,749.787537 541.684387,749.894470 539.815613,750.001221 
z"/>
<path fill="#FEFEFE" opacity="1.000000" stroke="none" 
	d="
M903.994141,668.997437 
	C908.982361,668.997437 913.471863,668.997437 918.288330,668.997437 
	C918.288330,673.194092 918.288330,677.244873 918.288330,681.848877 
	C911.785522,681.848877 905.089294,681.848877 898.033691,681.848877 
	C898.033691,704.774902 898.033691,727.158752 898.033691,749.770142 
	C892.932312,749.770142 888.198914,749.770142 883.093506,749.770142 
	C883.093506,727.289978 883.093506,704.905457 883.093506,682.130005 
	C876.001587,682.130005 869.261841,682.130005 862.264954,682.130005 
	C862.264954,677.678101 862.264954,673.608826 862.264954,668.997375 
	C875.994751,668.997375 889.745056,668.997375 903.994141,668.997437 
z"/>
<path fill="#FEFEFE" opacity="1.000000" stroke="none" 
	d="
M359.999573,727.625610 
	C358.227905,740.072327 351.960571,747.501343 339.693298,750.420044 
	C326.452576,753.570251 308.905212,742.181091 309.828156,727.242554 
	C314.405579,727.242554 319.003723,727.242554 323.822754,727.242554 
	C324.227264,728.623291 324.559479,730.207520 325.150482,731.688538 
	C326.812408,735.852844 331.758240,738.624268 336.015045,737.887512 
	C341.577545,736.924805 344.957123,733.036987 344.976990,727.193237 
	C345.036377,709.714783 344.998627,692.236023 344.998810,674.757385 
	C344.998840,672.969543 344.998810,671.181702 344.998810,669.198486 
	C350.126282,669.198486 354.860229,669.198486 360.000763,669.198486 
	C360.000763,688.642273 360.000763,707.904785 359.999573,727.625610 
z"/>
<path fill="#FFFFFF" opacity="1.000000" stroke="none" 
	d="
M690.000854,722.000000 
	C690.000977,704.192993 690.000977,686.885925 690.000977,669.289551 
	C694.945984,669.289551 699.684265,669.289551 704.713745,669.289551 
	C704.713745,695.951843 704.713745,722.685791 704.713745,749.710815 
	C700.052979,749.710815 695.314575,749.710815 690.000793,749.710815 
	C690.000793,740.694824 690.000793,731.597412 690.000854,722.000000 
z"/>
<path fill="#FFFFFF" opacity="1.000000" stroke="none" 
	d="
M599.984375,740.000610 
	C603.298889,740.000793 606.114319,740.000793 609.152771,740.000793 
	C609.152771,743.635010 609.152771,747.039307 609.152771,750.722046 
	C593.711731,750.722046 578.136047,750.722046 562.279785,750.722046 
	C562.279785,747.371399 562.279785,743.966736 562.279785,740.000427 
	C574.639771,740.000427 587.062500,740.000427 599.984375,740.000610 
z"/>
<path fill="#020302" opacity="1.000000" stroke="none" 
	d="
M502.827423,444.998230 
	C520.314453,444.639862 530.904419,433.817200 531.044128,416.850708 
	C531.075439,413.046051 531.436157,409.205658 532.067322,405.452667 
	C533.250183,398.418304 540.977051,393.460999 549.468994,394.007812 
	C556.866150,394.484161 562.552185,400.088684 563.007324,407.259369 
	C564.687500,433.727539 546.610901,459.262024 517.890991,461.949188 
	C509.905701,462.696350 501.751892,462.398499 493.744446,461.740265 
	C490.966705,461.511963 487.821503,459.232910 485.913635,456.983429 
	C484.356293,455.147156 483.174011,451.396240 484.042908,449.522675 
	C485.020691,447.414429 488.333771,445.689026 490.902924,445.186188 
	C494.590546,444.464417 498.524139,444.999603 502.827423,444.998230 
z"/>
<path fill="#060606" opacity="1.000000" stroke="none" 
	d="
M188.213409,685.231445 
	C189.124146,683.832520 189.965073,682.220764 190.960205,682.119080 
	C194.247910,681.783325 197.591324,681.985901 200.913315,681.994751 
	C209.253464,682.016968 213.853821,686.611328 213.751190,694.806519 
	C213.652695,702.672180 209.121399,706.953369 200.806015,707.004822 
	C196.822067,707.029480 192.837860,707.009094 188.214233,707.009094 
	C188.214233,699.837097 188.214233,692.773682 188.213409,685.231445 
z"/>
<path fill="#020202" opacity="1.000000" stroke="none" 
	d="
M285.099945,694.347839 
	C285.102600,705.101807 285.273743,715.402954 284.961823,725.689575 
	C284.747437,732.758240 279.061829,737.735962 271.941864,737.812683 
	C264.529266,737.892578 258.186310,732.354919 258.054932,725.221375 
	C257.862213,714.757324 257.854156,704.284180 258.054230,693.820435 
	C258.194275,686.498291 263.766846,681.261536 271.085876,681.023804 
	C278.865326,680.771240 284.246002,685.723999 285.099945,694.347839 
z"/>
<path fill="#020202" opacity="1.000000" stroke="none" 
	d="
M811.132202,731.564331 
	C810.295837,727.864807 809.195374,724.521545 809.091614,721.147583 
	C808.825806,712.501221 808.852173,703.837891 809.041870,695.187500 
	C809.270508,684.762878 818.135864,678.655090 827.876343,681.991699 
	C832.685242,683.639038 835.895325,688.054810 835.975220,693.762817 
	C836.112549,703.578979 835.923767,713.399963 836.082031,723.215515 
	C836.184692,729.582886 833.366272,734.071655 827.727478,736.541077 
	C822.232178,738.947571 815.716736,736.879639 811.132202,731.564331 
z"/>
<path fill="#040404" opacity="1.000000" stroke="none" 
	d="
M133.687103,681.996094 
	C141.837662,682.352722 145.734039,686.374390 145.953461,694.183777 
	C146.173721,702.023132 142.095688,707.277039 134.826202,707.889771 
	C130.417206,708.261353 125.951317,707.958191 121.301773,707.958191 
	C121.301773,699.170959 121.301773,690.795105 121.301773,681.996094 
	C125.348541,681.996094 129.288651,681.996094 133.687103,681.996094 
z"/>
<path fill="#020202" opacity="1.000000" stroke="none" 
	d="
M653.655884,707.041809 
	C648.024597,707.524719 642.802490,707.958313 637.247925,708.419495 
	C637.247925,699.417725 637.247925,691.037659 637.247925,682.074402 
	C642.271423,682.074402 647.607483,681.452942 652.719666,682.256348 
	C657.449402,682.999634 660.338013,686.802307 660.896484,691.655273 
	C661.578491,697.580933 660.887451,704.344055 653.655884,707.041809 
z"/>
</svg>