<svg version="1.1" id="Layer_1" xmlns="http://www.w3.org/2000/svg" xmlns:xlink="http://www.w3.org/1999/xlink" x="0px" y="0px"
	 width="100%" viewBox="0 0 512 512" enable-background="new 0 0 512 512" xml:space="preserve">
<path fill="#010101" opacity="1.000000" stroke="none" 
	d="
M234.000000,513.000000 
	C156.018906,513.000000 78.537811,513.000000 1.028361,513.000000 
	C1.028361,342.393890 1.028361,171.787750 1.028361,1.090815 
	C171.564453,1.090815 342.128967,1.090815 512.846741,1.090815 
	C512.846741,171.666565 512.846741,342.333252 512.846741,513.000000 
	C420.121063,513.000000 327.310516,513.000000 234.000000,513.000000 
M332.585297,326.024689 
	C364.774323,310.543396 391.628632,288.229279 415.047852,261.542297 
	C418.722778,257.354584 418.645081,254.865845 414.812622,250.634109 
	C411.460022,246.932220 407.875977,243.440399 404.406464,239.843887 
	C379.008850,213.516663 350.287262,192.050629 315.606781,179.380692 
	C291.977051,170.747955 267.543488,167.041153 242.489578,169.285904 
	C203.901550,172.743240 169.642624,187.660004 139.645279,211.663239 
	C124.882408,223.476166 111.741982,237.339233 98.092346,250.507767 
	C93.726799,254.719437 93.986877,256.896790 97.912865,261.708923 
	C99.804138,264.027069 101.874634,266.204651 103.936417,268.377136 
	C135.311600,301.437225 170.826187,327.828064 216.229614,338.464111 
	C232.201416,342.205597 248.318283,343.459473 265.161469,342.810150 
	C265.161469,340.653534 265.156616,338.866119 265.162231,337.078766 
	C265.207336,322.746796 265.315826,308.414551 265.261963,294.082977 
	C265.246643,290.003693 266.562195,287.971710 270.934967,286.960236 
	C296.603027,281.022949 308.765533,265.776367 309.273712,239.554291 
	C309.687378,218.209244 300.711792,204.438721 281.305542,199.492599 
	C264.009430,195.084290 246.220764,195.751160 228.766876,199.137085 
	C217.531616,201.316666 210.578690,209.179398 208.612610,220.206345 
	C206.930099,229.643066 206.168854,239.391510 206.349335,248.976685 
	C206.591156,261.820007 209.694778,274.053345 218.894547,283.912628 
	C219.868866,284.956757 220.919937,286.473602 220.935837,287.783264 
	C221.088882,300.407104 221.027573,313.033508 221.027573,326.528900 
	C175.499817,315.783081 140.509247,289.969055 110.182320,256.226379 
	C110.938461,255.275604 111.495232,254.462433 112.162338,253.753021 
	C136.011185,228.392639 162.561707,206.689041 195.279953,193.681625 
	C232.434235,178.910614 270.213928,177.718552 308.133514,190.333878 
	C336.057556,199.623856 360.094788,215.625137 381.668610,235.428818 
	C388.854462,242.025055 395.825897,248.854919 403.045105,255.720428 
	C367.508209,295.186462 326.848328,323.040802 274.316528,330.021332 
	C274.316528,334.359283 274.316528,338.128723 274.316528,342.271301 
	C294.660583,340.323303 313.795532,335.223969 332.585297,326.024689 
z"/>
<path fill="#FAFAFA" opacity="1.000000" stroke="none" 
	d="
M332.241028,326.172150 
	C313.795532,335.223969 294.660583,340.323303 274.316528,342.271301 
	C274.316528,338.128723 274.316528,334.359283 274.316528,330.021332 
	C326.848328,323.040802 367.508209,295.186462 403.045105,255.720428 
	C395.825897,248.854919 388.854462,242.025055 381.668610,235.428818 
	C360.094788,215.625137 336.057556,199.623856 308.133514,190.333878 
	C270.213928,177.718552 232.434235,178.910614 195.279953,193.681625 
	C162.561707,206.689041 136.011185,228.392639 112.162338,253.753021 
	C111.495232,254.462433 110.938461,255.275604 110.182320,256.226379 
	C140.509247,289.969055 175.499817,315.783081 221.027573,326.528900 
	C221.027573,313.033508 221.088882,300.407104 220.935837,287.783264 
	C220.919937,286.473602 219.868866,284.956757 218.894547,283.912628 
	C209.694778,274.053345 206.591156,261.820007 206.349335,248.976685 
	C206.168854,239.391510 206.930099,229.643066 208.612610,220.206345 
	C210.578690,209.179398 217.531616,201.316666 228.766876,199.137085 
	C246.220764,195.751160 264.009430,195.084290 281.305542,199.492599 
	C300.711792,204.438721 309.687378,218.209244 309.273712,239.554291 
	C308.765533,265.776367 296.603027,281.022949 270.934967,286.960236 
	C266.562195,287.971710 265.246643,290.003693 265.261963,294.082977 
	C265.315826,308.414551 265.207336,322.746796 265.162231,337.078766 
	C265.156616,338.866119 265.161469,340.653534 265.161469,342.810150 
	C248.318283,343.459473 232.201416,342.205597 216.229614,338.464111 
	C170.826187,327.828064 135.311600,301.437225 103.936417,268.377136 
	C101.874634,266.204651 99.804138,264.027069 97.912865,261.708923 
	C93.986877,256.896790 93.726799,254.719437 98.092346,250.507767 
	C111.741982,237.339233 124.882408,223.476166 139.645279,211.663239 
	C169.642624,187.660004 203.901550,172.743240 242.489578,169.285904 
	C267.543488,167.041153 291.977051,170.747955 315.606781,179.380692 
	C350.287262,192.050629 379.008850,213.516663 404.406464,239.843887 
	C407.875977,243.440399 411.460022,246.932220 414.812622,250.634109 
	C418.645081,254.865845 418.722778,257.354584 415.047852,261.542297 
	C391.628632,288.229279 364.774323,310.543396 332.241028,326.172150 
M275.282654,261.740082 
	C279.285034,256.394745 281.655426,250.514755 281.164124,243.706421 
	C280.817841,238.907684 277.622559,236.202103 272.843658,236.639999 
	C267.431702,237.135895 265.448822,240.035721 265.138184,247.908600 
	C264.777100,257.060303 259.800201,261.924927 250.709244,262.005402 
	C248.884033,262.021545 247.003448,261.751434 245.251587,262.113098 
	C243.955276,262.380707 242.019913,263.283447 241.816086,264.218597 
	C241.526230,265.548492 242.133957,267.647552 243.138260,268.546967 
	C244.526199,269.789948 246.597015,270.763458 248.450470,270.911346 
	C258.381958,271.703918 267.694214,270.266418 275.282654,261.740082 
z"/>
<path fill="#0A0A0A" opacity="1.000000" stroke="none" 
	d="
M275.035583,262.002869 
	C267.694214,270.266418 258.381958,271.703918 248.450470,270.911346 
	C246.597015,270.763458 244.526199,269.789948 243.138260,268.546967 
	C242.133957,267.647552 241.526230,265.548492 241.816086,264.218597 
	C242.019913,263.283447 243.955276,262.380707 245.251587,262.113098 
	C247.003448,261.751434 248.884033,262.021545 250.709244,262.005402 
	C259.800201,261.924927 264.777100,257.060303 265.138184,247.908600 
	C265.448822,240.035721 267.431702,237.135895 272.843658,236.639999 
	C277.622559,236.202103 280.817841,238.907684 281.164124,243.706421 
	C281.655426,250.514755 279.285034,256.394745 275.035583,262.002869 
z"/>
</svg>